<svg xmlns="http://www.w3.org/2000/svg" width="55" height="52" fill="none" viewBox="0 0 55 52"><mask id="a" width="52" height="44" x="3" y="4" maskUnits="userSpaceOnUse" style="mask-type:luminance"><path fill="#fff" fill-rule="evenodd" d="M3.756 4.62H54.01v42.819H3.755z" clip-rule="evenodd"/></mask><g mask="url(#a)"><path fill="#fff" fill-rule="evenodd" d="M44.73 33.11c-2.296.361-4.287 1.52-5.82 3.572-.22.293-.386.653-.516 1.01-.238.649-.05 1.176.492 1.468.173.094.37.143.56.187 1.4.327 2.79.145 4.16-.192 1.843-.455 3.568-1.247 4.944-2.792.38-.425.638-.78.967-1.467.326-.686.173-1.18-.497-1.494-.668-.312-2.289-.607-4.29-.292M15.117 8.462c.043-.868.109-1.735.175-2.602.017-.221.059-.446.123-.655.153-.489.421-.692.85-.532.389.143.791.348 1.094.65.607.607 1.178 1.27 1.713 1.964.486.63.657 1.354.562 2.253-.388 3.708-.788 7.419-1.014 11.142-.221 3.643-.328 7.3-.109 10.955.086 1.43.128 2.862.194 4.292.012.272.044.542.08.969.2-.267.329-.414.433-.582.922-1.489 1.832-2.986 2.758-4.47.665-1.063 1.542-1.787 2.658-2.123 1.616-.487 3.01.066 4.24 1.233.735.696 1.41 1.48 2.084 2.256 1.106 1.276 2.189 2.58 3.284 3.868.22.26.453.504.733.814 4.079-6.371 9.712-7.84 16.178-6.786l.133-1.281c.87-.378 1.736-.388 2.663.041.022.216.062.23.06.645-.175 3.733-.319 7.467-.124 11.207.03.589.126 2.746-.182 2.864-.178.068-.438-.491-.566-.772-.875-1.916-1.313-3.982-1.59-6.103-.018-.136-.032-.274-.061-.53-4.039 3.765-8.675 5.013-13.808 4.631.642 1.062 1.253 2.031 1.823 3.031.334.583.61 1.21.898 1.828.1.217.261.705-.072.725-.335.018-1.242-.718-1.754-1.258-1.64-1.733-3.244-3.512-4.882-5.248a636 636 0 0 0-6.352-6.654c-1.082-1.113-2.107-1.072-3.213.055-1.257 1.277-2.231 2.831-3.23 4.362a51 51 0 0 1-1.593 2.316c-.25.338-.556.642-.88.886-.5.376-.874.263-1.153-.35-.167-.368-.263-.785-.35-1.192-.647-3.009-.925-6.083-1.18-9.158-.2-2.404-.542-7.896-.584-8.31-.946-.093-1.811.177-2.6.695-2.328 1.524-3.299 4.446-1.967 7.273.426.91.988 1.737 1.513 2.582.623 1.005 1.335 1.945 1.902 2.989.975 1.798.748 4.022-.455 5.636-1.274 1.713-2.928 2.8-4.674 3.721-.865.456-1.766.83-2.669 1.19-.528.21-1.086.34-1.638.462-.241.054-.762.118-.807-.155-.046-.272.41-.497.65-.638 1.046-.616 2.114-1.185 3.156-1.806 1.067-.636 2.09-1.346 2.922-2.377 1.23-1.524 1.302-3.354.382-5.031-.52-.944-1.176-1.797-1.817-2.646-1.104-1.46-1.99-3.066-2.548-4.887-.421-1.38-.534-2.816-.164-4.23.354-1.355 1.204-2.297 2.231-3.023 1.938-1.368 3.994-1.58 6.144-.769.092.035.294.15.387.18.022.006-.185-9.501.013-13.547" clip-rule="evenodd"/></g><path fill="#fff" fill-rule="evenodd" d="M5.323 26.944c-.011 1.023-.246 9.387-.193 13.782.013 1.006.002 2.015-.014 3.022-.005.35-.123.947-.36.954-.236.008-.567-.668-.748-1.074-.817-1.827-1.237-3.794-1.561-5.777-.551-3.366-.744-6.766-.65-10.185.007-.27.032-.54.047-.782.995-.591 2.494-.568 3.479.06" clip-rule="evenodd"/><mask id="b" width="5" height="4" x="1" y="21" maskUnits="userSpaceOnUse" style="mask-type:luminance"><path fill="#fff" fill-rule="evenodd" d="M1.774 21.156h4.21v3.346h-4.21z" clip-rule="evenodd"/></mask><g mask="url(#b)"><path fill="#EC671B" fill-rule="evenodd" d="M3.766 21.158c.85-.058 1.62 1.016 2.077 1.874.297.559.122 1.034-.516 1.28-.64.248-2.397.235-2.86.067-.56-.203-.901-.694-.55-1.304.46-.799.998-1.858 1.849-1.917" clip-rule="evenodd"/></g></svg>